<?xml version="1.0" encoding="iso-8859-1"?>
<!-- Generator: Adobe Illustrator 19.0.0, SVG Export Plug-In . SVG Version: 6.00 Build 0)  -->
<svg version="1.1" id="Capa_1" xmlns="http://www.w3.org/2000/svg" xmlns:xlink="http://www.w3.org/1999/xlink" x="0px" y="0px"
	 viewBox="0 0 57 57" style="enable-background:new 0 0 57 57;" xml:space="preserve">
<g>
	<g>
		<path d="M47,12h-9.625l-6.652-5.82C31.497,5.537,32,4.581,32,3.5C32,1.57,30.43,0,28.5,0S25,1.57,25,3.5
			c0,1.081,0.503,2.037,1.276,2.68L19.625,12H10c-0.553,0-1,0.448-1,1v43c0,0.552,0.447,1,1,1h37c0.553,0,1-0.448,1-1V13
			C48,12.448,47.553,12,47,12z M11,15.414l6,6v26.172l-6,6V15.414z M44.586,14l-6,6H18.414l-6-6H44.586z M38,38.519l-3.747,2.998
			L27.348,30.47c-0.152-0.244-0.402-0.411-0.687-0.457c-0.285-0.047-0.574,0.032-0.797,0.215L19,35.881V22h19V38.519z M19,38.472
			l7.256-5.975l6.896,11.033c0.151,0.242,0.398,0.408,0.68,0.456C33.888,43.995,33.944,44,34,44c0.226,0,0.446-0.076,0.625-0.219
			l3.375-2.7V47H19V38.472z M18.414,49h20.172l6,6H12.414L18.414,49z M40,47.586V21.414l6-6v38.172L40,47.586z M28.5,2
			C29.327,2,30,2.673,30,3.5S29.327,5,28.5,5S27,4.327,27,3.5S27.673,2,28.5,2z M28.388,6.989C28.426,6.99,28.462,7,28.5,7
			s0.074-0.01,0.112-0.011L34.339,12H22.661L28.388,6.989z"/>
		<path d="M32,31c2.206,0,4-1.794,4-4s-1.794-4-4-4s-4,1.794-4,4S29.794,31,32,31z M32,25c1.103,0,2,0.897,2,2s-0.897,2-2,2
			s-2-0.897-2-2S30.897,25,32,25z"/>
	</g>
</g>
<g>
</g>
<g>
</g>
<g>
</g>
<g>
</g>
<g>
</g>
<g>
</g>
<g>
</g>
<g>
</g>
<g>
</g>
<g>
</g>
<g>
</g>
<g>
</g>
<g>
</g>
<g>
</g>
<g>
</g>
</svg>
